<svg xmlns="http://www.w3.org/2000/svg" xmlns:xlink="http://www.w3.org/1999/xlink" width="500" zoomAndPan="magnify" viewBox="0 0 375 374.999991" height="500" preserveAspectRatio="xMidYMid meet" version="1.2"><defs><clipPath id="65566c233b"><path d="M 150 97 L 201 97 L 201 139 L 150 139 Z M 150 97 "/></clipPath><clipPath id="dd681c3bbd"><path d="M 105.636719 93.15625 L 201.4375 99.386719 L 194.039062 213.144531 L 98.242188 206.914062 Z M 105.636719 93.15625 "/></clipPath><clipPath id="113489274f"><path d="M 105.636719 93.15625 L 201.4375 99.386719 L 194.039062 213.144531 L 98.242188 206.914062 Z M 105.636719 93.15625 "/></clipPath><clipPath id="ff9ba70fe3"><path d="M 100 129 L 154 129 L 154 208 L 100 208 Z M 100 129 "/></clipPath><clipPath id="61a59a6936"><path d="M 105.636719 93.15625 L 201.4375 99.386719 L 194.039062 213.144531 L 98.242188 206.914062 Z M 105.636719 93.15625 "/></clipPath><clipPath id="d749495adc"><path d="M 105.636719 93.15625 L 201.4375 99.386719 L 194.039062 213.144531 L 98.242188 206.914062 Z M 105.636719 93.15625 "/></clipPath><clipPath id="b8d38503a7"><path d="M 102 199 L 115 199 L 115 207 L 102 207 Z M 102 199 "/></clipPath><clipPath id="baa2dcbbce"><path d="M 108.847656 209.984375 L 101.257812 200.6875 L 107.070312 195.949219 L 114.65625 205.246094 Z M 108.847656 209.984375 "/></clipPath><clipPath id="0c784b7cdb"><path d="M 108.847656 209.984375 L 101.257812 200.6875 L 107.070312 195.949219 L 114.65625 205.246094 Z M 108.847656 209.984375 "/></clipPath><clipPath id="74ba1e9c2b"><path d="M 104 200 L 120 200 L 120 211 L 104 211 Z M 104 200 "/></clipPath><clipPath id="c445c0d5e9"><path d="M 112.429688 213.789062 L 103.746094 201.554688 L 111.085938 196.347656 L 119.765625 208.578125 Z M 112.429688 213.789062 "/></clipPath><clipPath id="2361d389c5"><path d="M 112.429688 213.789062 L 103.746094 201.554688 L 111.085938 196.347656 L 119.765625 208.578125 Z M 112.429688 213.789062 "/></clipPath><clipPath id="f72581b906"><path d="M 112 208 L 124 208 L 124 214 L 112 214 Z M 112 208 "/></clipPath><clipPath id="1d3ebb0c15"><path d="M 120.070312 215.664062 L 111.707031 209.316406 L 115.332031 204.535156 L 123.695312 210.882812 Z M 120.070312 215.664062 "/></clipPath><clipPath id="715b0f05d5"><path d="M 120.070312 215.664062 L 111.707031 209.316406 L 115.332031 204.535156 L 123.695312 210.882812 Z M 120.070312 215.664062 "/></clipPath><clipPath id="be7d3ba749"><rect x="0" width="124" y="0" height="86"/></clipPath><clipPath id="8508b20c0f"><rect x="0" width="42" y="0" height="101"/></clipPath></defs><g id="577cbf6db2"><g style="fill:#213b93;fill-opacity:1;"><g transform="translate(167.963811, 209.273482)"><path style="stroke:none" d="M 1.515625 -66.5 L 23.28125 -66.5 L 51.484375 -10.828125 L 51.484375 -60.046875 C 51.484375 -62.316406 51.132812 -63.800781 50.4375 -64.5 C 49.75 -65.195312 48.265625 -65.546875 45.984375 -65.546875 L 45.984375 -66.5 L 57.859375 -66.5 L 57.859375 -65.546875 C 55.578125 -65.546875 54.085938 -65.195312 53.390625 -64.5 C 52.691406 -63.800781 52.34375 -62.316406 52.34375 -60.046875 L 52.34375 0 L 40.75 0 L 10.546875 -59.28125 C 9.722656 -60.800781 8.867188 -62.035156 7.984375 -62.984375 L 7.984375 -6.265625 C 7.984375 -4.046875 8.3125 -2.601562 8.96875 -1.9375 C 9.632812 -1.28125 11.109375 -0.953125 13.390625 -0.953125 L 13.390625 0 L 1.515625 0 L 1.515625 -0.953125 C 3.796875 -0.953125 5.285156 -1.28125 5.984375 -1.9375 C 6.679688 -2.601562 7.03125 -4.046875 7.03125 -6.265625 L 7.03125 -63.84375 C 6.332031 -64.40625 5.554688 -64.828125 4.703125 -65.109375 C 3.847656 -65.398438 2.785156 -65.546875 1.515625 -65.546875 Z M 1.515625 -66.5 "/></g></g><g clip-rule="nonzero" clip-path="url(#65566c233b)"><g clip-rule="nonzero" clip-path="url(#dd681c3bbd)"><g clip-rule="nonzero" clip-path="url(#113489274f)"><path style=" stroke:none;fill-rule:nonzero;fill:#213b93;fill-opacity:1;" d="M 200.378906 100.535156 C 199.605469 99.273438 192.945312 102.085938 192.144531 102.425781 C 188.027344 104.167969 184.894531 106.289062 182.75 107.960938 C 180.945312 106.882812 179.140625 105.804688 177.335938 104.726562 C 177.777344 104.433594 178.214844 104.136719 178.65625 103.84375 C 178.4375 103.519531 178.082031 103.066406 177.535156 102.648438 C 176.886719 102.15625 176.25 101.921875 175.84375 101.8125 C 175.445312 102.121094 175.042969 102.433594 174.644531 102.746094 C 171.464844 100.957031 168.285156 99.167969 165.105469 97.378906 C 165.089844 97.378906 165.070312 97.375 165.054688 97.375 C 163.09375 97.898438 161.257812 98.785156 159.375 99.542969 C 163.328125 102.28125 167.28125 105.023438 171.238281 107.765625 L 170.472656 108.402344 C 170.675781 108.550781 170.875 108.703125 171.078125 108.851562 C 171.441406 108.707031 171.804688 108.558594 172.167969 108.414062 C 173.585938 109.394531 175 110.375 176.414062 111.355469 L 159.582031 123.855469 C 157.863281 122.921875 156.144531 121.984375 154.425781 121.046875 C 153.003906 121.472656 151.582031 121.898438 150.160156 122.324219 L 156.578125 126.925781 C 156.109375 127.386719 155.636719 127.847656 155.167969 128.3125 C 155.261719 128.457031 155.351562 128.605469 155.445312 128.753906 C 156.046875 128.582031 156.652344 128.40625 157.253906 128.234375 C 157.402344 130.695312 157.546875 133.15625 157.691406 135.617188 C 158.800781 134.664062 159.910156 133.710938 161.015625 132.757812 C 161.113281 130.714844 161.207031 128.671875 161.300781 126.628906 L 179.933594 117.144531 L 180.488281 121.742188 L 179.738281 122.378906 L 179.824219 122.839844 C 180.011719 122.867188 180.199219 122.898438 180.386719 122.929688 C 180.800781 128.214844 181.214844 133.503906 181.628906 138.789062 C 182.230469 138.332031 182.707031 137.9375 183.023438 137.660156 C 184.054688 136.75 185.046875 135.789062 186.125 134.933594 C 186.277344 134.8125 186.433594 134.695312 186.589844 134.578125 C 186.644531 130.578125 186.703125 126.582031 186.761719 122.582031 C 187.21875 122.359375 187.675781 122.132812 188.132812 121.910156 C 188.238281 121.511719 188.351562 120.863281 188.253906 120.082031 C 188.175781 119.449219 187.984375 118.949219 187.828125 118.609375 C 187.324219 118.753906 186.824219 118.894531 186.324219 119.035156 C 186.238281 117.027344 186.152344 115.015625 186.066406 113.007812 C 188.75 111.632812 192.320312 109.484375 195.960938 106.160156 C 197.484375 104.765625 201 101.554688 200.378906 100.535156 Z M 200.378906 100.535156 "/></g></g></g><g clip-rule="nonzero" clip-path="url(#ff9ba70fe3)"><g clip-rule="nonzero" clip-path="url(#61a59a6936)"><g clip-rule="nonzero" clip-path="url(#d749495adc)"><path style=" stroke:none;fill-rule:nonzero;fill:#213b93;fill-opacity:1;" d="M 106.039062 172.402344 C 102.585938 179.210938 99.46875 188.03125 100.6875 195.738281 C 101.164062 199.21875 102.582031 202.835938 105.460938 205.019531 C 108.230469 207.183594 111.933594 207.742188 115.328125 207.214844 C 110.9375 207.210938 106.523438 205.632812 104.371094 201.585938 C 103.351562 199.71875 102.929688 197.597656 102.765625 195.492188 C 102.054688 187.421875 106.375 177.824219 110.390625 170.953125 C 114.578125 163.824219 119.75 157.285156 125.496094 151.339844 C 130.707031 145.949219 136.410156 141.078125 142.503906 136.695312 C 145.90625 134.242188 149.441406 131.964844 153.03125 129.800781 C 133.539062 137.855469 115.742188 153.601562 106.039062 172.398438 Z M 106.039062 172.402344 "/></g></g></g><g clip-rule="nonzero" clip-path="url(#b8d38503a7)"><g clip-rule="nonzero" clip-path="url(#baa2dcbbce)"><g clip-rule="nonzero" clip-path="url(#0c784b7cdb)"><path style=" stroke:none;fill-rule:nonzero;fill:#213b93;fill-opacity:1;" d="M 110.5625 205.558594 C 110.476562 205.570312 110.375 205.578125 110.289062 205.589844 C 110.183594 205.59375 110.070312 205.589844 109.964844 205.589844 L 109.945312 205.582031 C 109.820312 205.574219 109.6875 205.574219 109.539062 205.566406 C 109.414062 205.5625 109.261719 205.550781 109.125 205.53125 C 108.996094 205.519531 108.863281 205.492188 108.75 205.46875 L 108.605469 205.441406 C 108.546875 205.425781 108.476562 205.414062 108.40625 205.386719 C 108.34375 205.367188 108.257812 205.339844 108.175781 205.308594 C 108.136719 205.292969 108.105469 205.285156 108.066406 205.265625 C 108.03125 205.25 107.992188 205.230469 107.945312 205.222656 C 107.863281 205.191406 107.789062 205.160156 107.71875 205.132812 C 107.574219 205.058594 107.421875 204.976562 107.285156 204.894531 C 107.1875 204.832031 107.085938 204.769531 107 204.707031 C 106.9375 204.664062 106.882812 204.625 106.816406 204.585938 C 106.785156 204.5625 106.757812 204.546875 106.722656 204.527344 C 106.671875 204.496094 106.621094 204.464844 106.570312 204.433594 C 106.511719 204.386719 106.449219 204.34375 106.394531 204.304688 L 106.292969 204.242188 C 106.234375 204.195312 106.171875 204.148438 106.105469 204.09375 C 106.046875 204.058594 105.992188 204.003906 105.945312 203.960938 L 105.941406 203.953125 C 105.878906 203.894531 105.800781 203.828125 105.734375 203.761719 C 105.710938 203.730469 105.675781 203.703125 105.652344 203.671875 C 105.621094 203.636719 105.578125 203.597656 105.550781 203.5625 C 105.421875 203.4375 105.292969 203.292969 105.152344 203.121094 L 105.128906 203.089844 C 105.023438 202.960938 104.910156 202.824219 104.800781 202.675781 C 104.765625 202.632812 104.738281 202.582031 104.703125 202.539062 C 104.675781 202.511719 104.667969 202.480469 104.644531 202.453125 L 104.621094 202.425781 C 104.578125 202.375 104.550781 202.324219 104.507812 202.273438 C 104.480469 202.226562 104.449219 202.167969 104.417969 202.121094 C 104.402344 202.085938 104.375 202.050781 104.359375 202.015625 C 104.335938 201.972656 104.304688 201.9375 104.289062 201.902344 C 104.261719 201.851562 104.226562 201.808594 104.199219 201.761719 C 104.152344 201.691406 104.113281 201.613281 104.074219 201.535156 L 104.042969 201.46875 L 104.019531 201.425781 C 103.976562 201.339844 103.925781 201.25 103.882812 201.152344 C 103.839844 201.070312 103.800781 200.980469 103.753906 200.875 C 103.71875 200.804688 103.699219 200.738281 103.671875 200.675781 C 103.664062 200.648438 103.652344 200.621094 103.640625 200.59375 C 103.613281 200.496094 103.570312 200.402344 103.53125 200.3125 C 103.511719 200.257812 103.476562 200.199219 103.457031 200.144531 L 103.441406 200.109375 C 103.433594 200.089844 103.421875 200.074219 103.410156 200.0625 C 103.347656 199.980469 103.222656 199.949219 103.128906 199.980469 C 103.101562 199.976562 103.070312 199.980469 103.042969 199.992188 C 102.945312 200.019531 102.84375 200.054688 102.734375 200.097656 C 102.6875 200.113281 102.636719 200.128906 102.601562 200.144531 L 102.5625 200.152344 C 102.523438 200.164062 102.488281 200.179688 102.453125 200.195312 C 102.417969 200.210938 102.378906 200.222656 102.328125 200.234375 C 102.242188 200.261719 102.179688 200.347656 102.167969 200.449219 L 102.15625 200.496094 C 102.148438 200.542969 102.15625 200.582031 102.171875 200.628906 L 102.175781 200.664062 C 102.1875 200.710938 102.195312 200.765625 102.210938 200.8125 C 102.226562 200.859375 102.246094 200.914062 102.257812 200.957031 C 102.273438 200.992188 102.289062 201.039062 102.296875 201.078125 L 102.316406 201.132812 C 102.332031 201.179688 102.355469 201.222656 102.371094 201.257812 C 102.375 201.277344 102.386719 201.292969 102.390625 201.3125 C 102.417969 201.375 102.445312 201.4375 102.472656 201.5 C 102.503906 201.582031 102.542969 201.671875 102.578125 201.75 C 102.613281 201.816406 102.644531 201.886719 102.675781 201.957031 C 102.722656 202.039062 102.757812 202.128906 102.796875 202.21875 C 102.863281 202.390625 102.96875 202.546875 103.058594 202.703125 L 103.085938 202.753906 C 103.109375 202.792969 103.144531 202.835938 103.164062 202.878906 C 103.226562 202.984375 103.296875 203.097656 103.371094 203.203125 L 103.390625 203.226562 C 103.476562 203.347656 103.5625 203.480469 103.65625 203.597656 C 103.683594 203.632812 103.71875 203.675781 103.75 203.710938 C 103.808594 203.785156 103.871094 203.863281 103.925781 203.941406 L 103.960938 203.984375 C 103.996094 204.027344 104.023438 204.078125 104.058594 204.121094 C 104.0625 204.128906 104.0625 204.128906 104.070312 204.132812 C 104.117188 204.191406 104.171875 204.257812 104.234375 204.324219 C 104.34375 204.441406 104.453125 204.542969 104.558594 204.660156 L 104.609375 204.703125 C 104.691406 204.792969 104.761719 204.867188 104.84375 204.933594 C 104.902344 204.980469 104.957031 205.03125 105.023438 205.082031 L 105.082031 205.109375 C 105.117188 205.140625 105.148438 205.164062 105.1875 205.191406 C 105.300781 205.289062 105.429688 205.390625 105.554688 205.480469 C 105.691406 205.574219 105.824219 205.667969 105.960938 205.761719 C 105.988281 205.777344 106.003906 205.785156 106.03125 205.800781 C 106.359375 206.011719 106.628906 206.164062 106.894531 206.285156 C 107.058594 206.367188 107.214844 206.429688 107.371094 206.484375 C 107.40625 206.5 107.453125 206.511719 107.488281 206.53125 C 107.527344 206.546875 107.558594 206.558594 107.597656 206.574219 C 107.679688 206.601562 107.757812 206.625 107.828125 206.648438 L 107.859375 206.660156 L 107.828125 206.648438 C 107.945312 206.6875 108.058594 206.714844 108.167969 206.746094 C 108.226562 206.757812 108.285156 206.769531 108.335938 206.789062 C 108.503906 206.832031 108.679688 206.867188 108.875 206.902344 C 109.042969 206.933594 109.21875 206.941406 109.421875 206.957031 C 109.554688 206.96875 109.726562 206.972656 109.902344 206.984375 C 110.042969 206.992188 110.195312 206.988281 110.378906 206.980469 C 110.484375 206.980469 110.585938 206.96875 110.6875 206.960938 L 110.792969 206.929688 L 110.828125 206.925781 C 110.886719 206.925781 110.949219 206.914062 111.007812 206.914062 C 111.074219 206.90625 111.144531 206.886719 111.210938 206.878906 L 111.238281 206.871094 L 111.292969 206.863281 C 111.363281 206.851562 111.445312 206.832031 111.527344 206.8125 C 111.539062 206.816406 111.546875 206.808594 111.566406 206.804688 C 111.609375 206.796875 111.640625 206.792969 111.675781 206.777344 L 111.683594 206.769531 C 111.730469 206.753906 111.785156 206.746094 111.839844 206.738281 C 111.953125 206.71875 112.054688 206.695312 112.171875 206.660156 C 112.246094 206.632812 112.316406 206.601562 112.382812 206.582031 C 112.445312 206.554688 112.5 206.535156 112.570312 206.515625 C 112.664062 206.484375 112.753906 206.433594 112.84375 206.398438 L 112.878906 206.382812 C 112.921875 206.359375 112.960938 206.351562 113.003906 206.328125 C 113.085938 206.296875 113.171875 206.253906 113.253906 206.207031 C 113.277344 206.191406 113.296875 206.1875 113.316406 206.167969 C 113.332031 206.15625 113.351562 206.152344 113.367188 206.140625 L 113.386719 206.136719 C 113.414062 206.125 113.4375 206.105469 113.457031 206.101562 C 113.570312 206.046875 113.679688 205.980469 113.792969 205.914062 C 113.84375 205.882812 113.886719 205.847656 113.929688 205.8125 C 113.945312 205.800781 113.957031 205.789062 113.972656 205.777344 L 113.988281 205.765625 C 113.996094 205.761719 114 205.753906 114.015625 205.742188 C 114.058594 205.707031 114.089844 205.671875 114.121094 205.621094 C 114.136719 205.597656 114.144531 205.5625 114.144531 205.53125 C 114.144531 205.519531 114.152344 205.511719 114.144531 205.503906 C 114.148438 205.480469 114.144531 205.457031 114.144531 205.433594 C 114.144531 205.386719 114.128906 205.351562 114.097656 205.316406 C 114.085938 205.300781 114.082031 205.28125 114.078125 205.261719 C 114.066406 205.234375 114.0625 205.210938 114.046875 205.191406 C 114.015625 205.140625 113.996094 205.085938 113.96875 205.039062 L 113.953125 205.003906 C 113.941406 204.976562 113.925781 204.941406 113.90625 204.917969 C 113.894531 204.90625 113.898438 204.890625 113.886719 204.875 L 113.875 204.863281 L 113.851562 204.832031 C 113.84375 204.828125 113.839844 204.804688 113.832031 204.800781 C 113.8125 204.757812 113.800781 204.714844 113.773438 204.679688 C 113.726562 204.621094 113.671875 204.585938 113.605469 204.578125 C 113.550781 204.570312 113.507812 204.574219 113.457031 204.601562 C 113.4375 204.605469 113.417969 204.609375 113.402344 204.621094 C 113.34375 204.65625 113.296875 204.683594 113.238281 204.71875 C 113.21875 204.738281 113.191406 204.746094 113.164062 204.769531 C 113.078125 204.816406 112.996094 204.859375 112.890625 204.910156 C 112.800781 204.945312 112.710938 204.996094 112.578125 205.054688 C 112.472656 205.105469 112.363281 205.144531 112.261719 205.183594 C 112.234375 205.191406 112.214844 205.195312 112.1875 205.207031 L 112.070312 205.242188 C 111.953125 205.277344 111.839844 205.3125 111.714844 205.351562 C 111.640625 205.375 111.558594 205.394531 111.476562 205.414062 C 111.394531 205.429688 111.308594 205.441406 111.226562 205.460938 L 111.195312 205.464844 C 111.046875 205.488281 110.878906 205.519531 110.726562 205.535156 C 110.691406 205.539062 110.628906 205.550781 110.5625 205.558594 Z M 110.5625 205.558594 "/></g></g></g><g clip-rule="nonzero" clip-path="url(#74ba1e9c2b)"><g clip-rule="nonzero" clip-path="url(#c445c0d5e9)"><g clip-rule="nonzero" clip-path="url(#2361d389c5)"><path style=" stroke:none;fill-rule:nonzero;fill:#213b93;fill-opacity:1;" d="M 114.976562 208.320312 C 114.867188 208.324219 114.738281 208.328125 114.628906 208.335938 C 114.492188 208.332031 114.351562 208.316406 114.21875 208.308594 L 114.195312 208.296875 C 114.035156 208.277344 113.867188 208.265625 113.679688 208.242188 C 113.519531 208.222656 113.328125 208.199219 113.15625 208.164062 C 112.992188 208.136719 112.832031 208.089844 112.6875 208.050781 L 112.507812 208.003906 C 112.433594 207.980469 112.34375 207.957031 112.257812 207.917969 C 112.179688 207.886719 112.078125 207.84375 111.972656 207.800781 C 111.925781 207.777344 111.886719 207.761719 111.839844 207.738281 C 111.792969 207.710938 111.746094 207.6875 111.691406 207.667969 C 111.589844 207.625 111.496094 207.574219 111.410156 207.535156 C 111.230469 207.429688 111.046875 207.3125 110.882812 207.199219 C 110.761719 207.113281 110.640625 207.023438 110.535156 206.9375 C 110.460938 206.875 110.394531 206.820312 110.3125 206.765625 C 110.273438 206.734375 110.246094 206.710938 110.199219 206.6875 C 110.136719 206.644531 110.078125 206.597656 110.015625 206.554688 C 109.941406 206.492188 109.871094 206.429688 109.800781 206.375 L 109.742188 206.328125 L 109.679688 206.285156 C 109.609375 206.222656 109.535156 206.160156 109.453125 206.085938 C 109.386719 206.03125 109.320312 205.960938 109.265625 205.902344 L 109.257812 205.890625 C 109.1875 205.8125 109.089844 205.71875 109.011719 205.628906 C 108.984375 205.59375 108.941406 205.550781 108.914062 205.511719 C 108.878906 205.464844 108.832031 205.414062 108.796875 205.363281 C 108.648438 205.195312 108.492188 205 108.328125 204.769531 L 108.300781 204.730469 C 108.179688 204.558594 108.050781 204.375 107.921875 204.175781 C 107.882812 204.117188 107.851562 204.050781 107.808594 203.996094 C 107.78125 203.957031 107.769531 203.921875 107.742188 203.882812 L 107.714844 203.84375 C 107.667969 203.777344 107.636719 203.710938 107.589844 203.644531 C 107.558594 203.578125 107.519531 203.503906 107.488281 203.441406 C 107.46875 203.394531 107.4375 203.347656 107.417969 203.300781 C 107.394531 203.246094 107.359375 203.199219 107.339844 203.152344 C 107.308594 203.089844 107.269531 203.03125 107.238281 202.964844 C 107.1875 202.871094 107.144531 202.773438 107.101562 202.671875 L 107.066406 202.582031 L 107.042969 202.527344 C 106.992188 202.414062 106.9375 202.296875 106.890625 202.171875 C 106.839844 202.058594 106.800781 201.941406 106.75 201.808594 C 106.714844 201.714844 106.695312 201.628906 106.664062 201.546875 C 106.65625 201.511719 106.644531 201.476562 106.632812 201.441406 C 106.601562 201.316406 106.558594 201.191406 106.515625 201.074219 C 106.496094 201 106.457031 200.925781 106.433594 200.855469 L 106.417969 200.8125 C 106.414062 200.785156 106.398438 200.765625 106.386719 200.746094 C 106.3125 200.640625 106.160156 200.589844 106.035156 200.617188 C 106.003906 200.613281 105.960938 200.613281 105.925781 200.625 C 105.800781 200.65625 105.667969 200.691406 105.523438 200.734375 C 105.460938 200.75 105.402344 200.765625 105.355469 200.78125 L 105.304688 200.792969 C 105.25 200.800781 105.207031 200.816406 105.160156 200.835938 C 105.113281 200.851562 105.0625 200.859375 105 200.875 C 104.886719 200.898438 104.800781 201.003906 104.777344 201.132812 L 104.761719 201.191406 C 104.742188 201.246094 104.75 201.296875 104.765625 201.359375 L 104.765625 201.402344 C 104.78125 201.464844 104.789062 201.535156 104.800781 201.59375 C 104.816406 201.65625 104.839844 201.730469 104.847656 201.78125 C 104.863281 201.828125 104.878906 201.886719 104.886719 201.941406 L 104.910156 202.011719 C 104.925781 202.074219 104.949219 202.128906 104.964844 202.175781 C 104.972656 202.199219 104.984375 202.21875 104.988281 202.246094 C 105.015625 202.328125 105.046875 202.40625 105.074219 202.488281 C 105.105469 202.597656 105.144531 202.710938 105.1875 202.8125 C 105.222656 202.902344 105.257812 202.996094 105.296875 203.085938 C 105.34375 203.195312 105.382812 203.3125 105.421875 203.429688 C 105.496094 203.652344 105.613281 203.859375 105.714844 204.0625 L 105.746094 204.128906 C 105.769531 204.183594 105.808594 204.238281 105.835938 204.292969 C 105.90625 204.433594 105.980469 204.582031 106.066406 204.722656 L 106.085938 204.753906 C 106.1875 204.914062 106.285156 205.089844 106.394531 205.246094 C 106.429688 205.292969 106.46875 205.351562 106.503906 205.398438 C 106.570312 205.496094 106.648438 205.601562 106.707031 205.703125 L 106.746094 205.761719 C 106.789062 205.820312 106.820312 205.882812 106.859375 205.941406 C 106.867188 205.953125 106.867188 205.953125 106.875 205.960938 C 106.929688 206.039062 106.988281 206.125 107.066406 206.214844 C 107.195312 206.371094 107.320312 206.511719 107.449219 206.667969 L 107.503906 206.730469 C 107.605469 206.847656 107.6875 206.945312 107.785156 207.039062 C 107.855469 207.101562 107.921875 207.171875 108.003906 207.246094 L 108.074219 207.285156 C 108.117188 207.324219 108.152344 207.355469 108.195312 207.398438 C 108.335938 207.53125 108.488281 207.667969 108.636719 207.792969 C 108.800781 207.921875 108.964844 208.054688 109.132812 208.183594 C 109.160156 208.203125 109.183594 208.21875 109.214844 208.238281 C 109.613281 208.535156 109.941406 208.753906 110.265625 208.925781 C 110.46875 209.042969 110.664062 209.136719 110.851562 209.21875 C 110.898438 209.246094 110.957031 209.261719 111 209.289062 C 111.046875 209.3125 111.089844 209.328125 111.132812 209.351562 C 111.238281 209.394531 111.332031 209.429688 111.417969 209.46875 L 111.460938 209.484375 L 111.417969 209.46875 C 111.5625 209.527344 111.707031 209.570312 111.84375 209.617188 C 111.917969 209.636719 111.988281 209.660156 112.050781 209.6875 C 112.261719 209.753906 112.480469 209.816406 112.722656 209.875 C 112.933594 209.929688 113.15625 209.957031 113.414062 209.992188 C 113.578125 210.023438 113.796875 210.042969 114.019531 210.070312 C 114.195312 210.09375 114.386719 210.101562 114.625 210.105469 C 114.757812 210.113281 114.886719 210.109375 115.011719 210.105469 L 115.152344 210.078125 L 115.195312 210.074219 C 115.273438 210.082031 115.351562 210.066406 115.425781 210.074219 C 115.511719 210.070312 115.597656 210.050781 115.683594 210.046875 L 115.71875 210.039062 L 115.789062 210.03125 C 115.882812 210.023438 115.988281 210.007812 116.089844 209.992188 C 116.109375 209.992188 116.117188 209.988281 116.144531 209.984375 C 116.195312 209.976562 116.238281 209.972656 116.285156 209.957031 L 116.292969 209.949219 C 116.355469 209.933594 116.425781 209.929688 116.492188 209.921875 C 116.640625 209.90625 116.769531 209.886719 116.917969 209.851562 C 117.015625 209.824219 117.109375 209.789062 117.195312 209.773438 C 117.277344 209.742188 117.347656 209.722656 117.4375 209.703125 C 117.558594 209.671875 117.679688 209.617188 117.796875 209.578125 L 117.84375 209.558594 C 117.898438 209.535156 117.949219 209.527344 118.003906 209.503906 C 118.109375 209.46875 118.222656 209.421875 118.332031 209.371094 C 118.359375 209.351562 118.386719 209.347656 118.414062 209.328125 C 118.433594 209.3125 118.460938 209.308594 118.480469 209.292969 L 118.507812 209.289062 C 118.542969 209.28125 118.570312 209.257812 118.597656 209.253906 C 118.742188 209.195312 118.890625 209.117188 119.039062 209.042969 C 119.105469 209.011719 119.160156 208.96875 119.21875 208.929688 C 119.238281 208.914062 119.257812 208.902344 119.277344 208.886719 L 119.296875 208.875 C 119.304688 208.867188 119.316406 208.859375 119.335938 208.847656 C 119.394531 208.804688 119.433594 208.761719 119.476562 208.703125 C 119.5 208.671875 119.515625 208.632812 119.515625 208.589844 C 119.515625 208.574219 119.527344 208.566406 119.519531 208.554688 C 119.527344 208.523438 119.519531 208.496094 119.527344 208.464844 C 119.527344 208.40625 119.511719 208.359375 119.476562 208.3125 C 119.464844 208.292969 119.457031 208.265625 119.453125 208.242188 C 119.445312 208.203125 119.441406 208.179688 119.417969 208.148438 C 119.386719 208.085938 119.367188 208.015625 119.335938 207.949219 L 119.316406 207.902344 C 119.304688 207.867188 119.289062 207.824219 119.269531 207.792969 C 119.253906 207.773438 119.257812 207.757812 119.242188 207.738281 L 119.230469 207.71875 L 119.214844 207.699219 L 119.203125 207.679688 C 119.195312 207.671875 119.191406 207.644531 119.183594 207.636719 C 119.160156 207.582031 119.152344 207.527344 119.117188 207.480469 C 119.0625 207.402344 118.996094 207.351562 118.914062 207.335938 C 118.847656 207.324219 118.789062 207.324219 118.722656 207.355469 C 118.699219 207.359375 118.671875 207.363281 118.652344 207.375 C 118.578125 207.414062 118.515625 207.445312 118.441406 207.484375 C 118.410156 207.503906 118.375 207.515625 118.335938 207.542969 C 118.226562 207.589844 118.117188 207.640625 117.980469 207.695312 C 117.863281 207.734375 117.746094 207.789062 117.574219 207.851562 C 117.4375 207.90625 117.292969 207.949219 117.160156 207.988281 C 117.125 207.996094 117.097656 208 117.0625 208.011719 L 116.914062 208.046875 C 116.761719 208.082031 116.613281 208.113281 116.453125 208.15625 C 116.355469 208.179688 116.253906 208.195312 116.148438 208.214844 C 116.042969 208.230469 115.933594 208.234375 115.828125 208.253906 L 115.785156 208.253906 C 115.59375 208.273438 115.378906 208.292969 115.183594 208.304688 C 115.140625 208.304688 115.0625 208.316406 114.976562 208.320312 Z M 114.976562 208.320312 "/></g></g></g><g clip-rule="nonzero" clip-path="url(#f72581b906)"><g clip-rule="nonzero" clip-path="url(#1d3ebb0c15)"><g clip-rule="nonzero" clip-path="url(#715b0f05d5)"><path style=" stroke:none;fill-rule:nonzero;fill:#213b93;fill-opacity:1;" d="M 120.621094 211.488281 C 120.546875 211.515625 120.460938 211.546875 120.390625 211.574219 C 120.300781 211.597656 120.203125 211.617188 120.109375 211.640625 L 120.09375 211.636719 C 119.984375 211.65625 119.871094 211.683594 119.738281 211.710938 C 119.628906 211.730469 119.496094 211.753906 119.375 211.765625 C 119.261719 211.78125 119.144531 211.785156 119.039062 211.789062 L 118.910156 211.792969 C 118.855469 211.796875 118.792969 211.796875 118.726562 211.789062 C 118.667969 211.785156 118.589844 211.777344 118.511719 211.773438 C 118.476562 211.765625 118.445312 211.761719 118.410156 211.757812 C 118.375 211.75 118.335938 211.742188 118.296875 211.742188 C 118.21875 211.734375 118.148438 211.722656 118.082031 211.714844 C 117.941406 211.679688 117.792969 211.640625 117.660156 211.601562 C 117.5625 211.566406 117.460938 211.535156 117.375 211.5 C 117.3125 211.472656 117.257812 211.449219 117.1875 211.429688 C 117.15625 211.417969 117.132812 211.40625 117.097656 211.402344 C 117.046875 211.382812 117 211.367188 116.949219 211.351562 C 116.886719 211.324219 116.824219 211.296875 116.769531 211.277344 L 116.71875 211.257812 L 116.667969 211.242188 C 116.605469 211.214844 116.542969 211.1875 116.476562 211.15625 C 116.417969 211.136719 116.363281 211.101562 116.3125 211.074219 L 116.304688 211.070312 C 116.242188 211.03125 116.160156 210.988281 116.089844 210.945312 C 116.0625 210.925781 116.023438 210.90625 115.996094 210.886719 C 115.964844 210.863281 115.921875 210.839844 115.886719 210.8125 C 115.753906 210.734375 115.609375 210.632812 115.453125 210.515625 L 115.425781 210.496094 C 115.308594 210.40625 115.183594 210.3125 115.058594 210.203125 C 115.019531 210.175781 114.984375 210.136719 114.945312 210.109375 C 114.917969 210.089844 114.902344 210.066406 114.878906 210.046875 L 114.851562 210.027344 C 114.804688 209.992188 114.769531 209.957031 114.726562 209.921875 C 114.691406 209.882812 114.648438 209.84375 114.613281 209.804688 C 114.59375 209.78125 114.5625 209.753906 114.539062 209.730469 C 114.511719 209.699219 114.480469 209.671875 114.457031 209.644531 C 114.421875 209.609375 114.382812 209.578125 114.351562 209.542969 C 114.296875 209.492188 114.246094 209.433594 114.199219 209.375 L 114.15625 209.324219 L 114.128906 209.292969 C 114.070312 209.226562 114.007812 209.160156 113.953125 209.085938 C 113.894531 209.023438 113.84375 208.953125 113.78125 208.875 C 113.738281 208.820312 113.707031 208.765625 113.671875 208.71875 C 113.65625 208.695312 113.644531 208.675781 113.628906 208.652344 C 113.582031 208.578125 113.523438 208.503906 113.472656 208.433594 C 113.445312 208.390625 113.402344 208.351562 113.375 208.308594 L 113.355469 208.28125 C 113.34375 208.265625 113.332031 208.253906 113.320312 208.242188 C 113.246094 208.1875 113.136719 208.1875 113.058594 208.230469 C 113.035156 208.234375 113.007812 208.246094 112.984375 208.261719 C 112.910156 208.304688 112.828125 208.359375 112.742188 208.417969 C 112.707031 208.441406 112.667969 208.460938 112.640625 208.484375 L 112.609375 208.5 C 112.574219 208.515625 112.546875 208.539062 112.523438 208.558594 C 112.496094 208.582031 112.460938 208.597656 112.425781 208.621094 C 112.351562 208.660156 112.316406 208.746094 112.332031 208.835938 L 112.332031 208.878906 C 112.328125 208.921875 112.347656 208.953125 112.367188 208.992188 L 112.378906 209.019531 C 112.402344 209.058594 112.417969 209.101562 112.441406 209.140625 C 112.464844 209.179688 112.496094 209.222656 112.511719 209.253906 C 112.53125 209.28125 112.554688 209.320312 112.570312 209.351562 L 112.601562 209.394531 C 112.625 209.433594 112.652344 209.464844 112.671875 209.492188 C 112.679688 209.507812 112.695312 209.515625 112.703125 209.535156 C 112.738281 209.582031 112.773438 209.628906 112.808594 209.675781 C 112.855469 209.742188 112.90625 209.8125 112.953125 209.871094 C 112.996094 209.921875 113.039062 209.976562 113.082031 210.027344 C 113.136719 210.089844 113.1875 210.160156 113.238281 210.230469 C 113.332031 210.363281 113.453125 210.476562 113.5625 210.589844 L 113.597656 210.628906 C 113.625 210.660156 113.664062 210.6875 113.695312 210.722656 C 113.769531 210.796875 113.851562 210.882812 113.9375 210.957031 L 113.957031 210.972656 C 114.058594 211.058594 114.160156 211.15625 114.265625 211.238281 C 114.296875 211.261719 114.335938 211.292969 114.371094 211.316406 C 114.433594 211.367188 114.507812 211.421875 114.566406 211.476562 L 114.605469 211.507812 C 114.644531 211.535156 114.679688 211.574219 114.71875 211.601562 C 114.726562 211.609375 114.726562 211.609375 114.734375 211.613281 C 114.785156 211.652344 114.84375 211.699219 114.914062 211.742188 C 115.03125 211.820312 115.148438 211.886719 115.261719 211.964844 L 115.3125 211.992188 C 115.40625 212.050781 115.480469 212.097656 115.5625 212.140625 C 115.625 212.167969 115.683594 212.199219 115.753906 212.230469 L 115.808594 212.242188 C 115.84375 212.261719 115.875 212.273438 115.914062 212.292969 C 116.035156 212.351562 116.164062 212.410156 116.289062 212.464844 C 116.425781 212.515625 116.5625 212.566406 116.699219 212.621094 C 116.722656 212.628906 116.742188 212.632812 116.765625 212.640625 C 117.09375 212.753906 117.359375 212.828125 117.609375 212.875 C 117.769531 212.914062 117.917969 212.933594 118.0625 212.949219 C 118.097656 212.957031 118.140625 212.957031 118.175781 212.964844 C 118.210938 212.972656 118.242188 212.972656 118.277344 212.980469 C 118.355469 212.988281 118.425781 212.988281 118.492188 212.996094 L 118.519531 213 L 118.492188 212.996094 C 118.597656 213.007812 118.703125 213.003906 118.804688 213.007812 C 118.859375 213.007812 118.910156 213.003906 118.957031 213.011719 C 119.109375 213.011719 119.269531 213.007812 119.445312 212.996094 C 119.597656 212.988281 119.75 212.960938 119.929688 212.929688 C 120.042969 212.914062 120.191406 212.882812 120.347656 212.855469 C 120.46875 212.832031 120.597656 212.796875 120.757812 212.75 C 120.847656 212.726562 120.933594 212.699219 121.015625 212.667969 L 121.105469 212.621094 L 121.132812 212.613281 C 121.183594 212.597656 121.234375 212.574219 121.285156 212.5625 C 121.339844 212.542969 121.394531 212.511719 121.449219 212.492188 L 121.472656 212.476562 L 121.515625 212.460938 C 121.578125 212.433594 121.644531 212.402344 121.710938 212.367188 C 121.722656 212.367188 121.726562 212.359375 121.742188 212.351562 C 121.777344 212.335938 121.804688 212.324219 121.832031 212.304688 L 121.835938 212.296875 C 121.875 212.273438 121.917969 212.257812 121.960938 212.238281 C 122.058594 212.195312 122.140625 212.15625 122.230469 212.101562 C 122.292969 212.066406 122.34375 212.023438 122.398438 211.992188 C 122.445312 211.957031 122.488281 211.925781 122.542969 211.894531 C 122.621094 211.847656 122.6875 211.789062 122.757812 211.738281 L 122.785156 211.714844 C 122.816406 211.6875 122.847656 211.671875 122.878906 211.644531 C 122.945312 211.597656 123.007812 211.542969 123.070312 211.488281 C 123.085938 211.46875 123.101562 211.460938 123.117188 211.441406 C 123.128906 211.425781 123.144531 211.417969 123.152344 211.40625 L 123.171875 211.398438 C 123.191406 211.382812 123.207031 211.363281 123.222656 211.355469 C 123.308594 211.285156 123.390625 211.203125 123.472656 211.121094 C 123.511719 211.085938 123.539062 211.046875 123.570312 211.007812 C 123.578125 210.996094 123.589844 210.980469 123.601562 210.96875 L 123.609375 210.957031 C 123.613281 210.949219 123.621094 210.941406 123.628906 210.929688 C 123.660156 210.890625 123.679688 210.851562 123.695312 210.804688 C 123.703125 210.777344 123.703125 210.75 123.695312 210.71875 C 123.695312 210.707031 123.699219 210.703125 123.691406 210.699219 C 123.6875 210.675781 123.679688 210.65625 123.675781 210.632812 C 123.667969 210.59375 123.644531 210.570312 123.613281 210.542969 C 123.597656 210.535156 123.589844 210.515625 123.582031 210.5 C 123.566406 210.480469 123.558594 210.460938 123.539062 210.449219 C 123.503906 210.410156 123.476562 210.367188 123.441406 210.332031 L 123.421875 210.304688 C 123.40625 210.285156 123.382812 210.257812 123.363281 210.242188 C 123.351562 210.234375 123.351562 210.222656 123.335938 210.210938 L 123.324219 210.199219 L 123.3125 210.191406 L 123.296875 210.179688 C 123.292969 210.175781 123.28125 210.160156 123.277344 210.15625 C 123.25 210.125 123.230469 210.089844 123.199219 210.066406 C 123.148438 210.023438 123.089844 210.003906 123.035156 210.011719 C 122.988281 210.019531 122.949219 210.027344 122.910156 210.0625 C 122.894531 210.070312 122.878906 210.078125 122.867188 210.09375 C 122.828125 210.132812 122.789062 210.167969 122.75 210.210938 C 122.734375 210.230469 122.710938 210.242188 122.691406 210.269531 C 122.628906 210.324219 122.566406 210.382812 122.488281 210.445312 C 122.417969 210.496094 122.351562 210.558594 122.25 210.636719 C 122.167969 210.699219 122.082031 210.757812 122.003906 210.8125 C 121.980469 210.824219 121.964844 210.835938 121.941406 210.847656 L 121.851562 210.902344 C 121.757812 210.957031 121.664062 211.011719 121.566406 211.070312 C 121.507812 211.109375 121.441406 211.140625 121.375 211.171875 C 121.308594 211.207031 121.238281 211.234375 121.171875 211.265625 L 121.144531 211.277344 C 121.019531 211.328125 120.882812 211.386719 120.753906 211.433594 C 120.726562 211.445312 120.675781 211.46875 120.621094 211.488281 Z M 120.621094 211.488281 "/></g></g></g><g transform="matrix(1,0,0,1,74,134)"><g clip-path="url(#be7d3ba749)"><g style="fill:#213b93;fill-opacity:1;"><g transform="translate(89.212575, 85.255425)"><path style="stroke:none" d="M -42.53125 -25.234375 C -43.320312 -24.984375 -44.003906 -24.859375 -44.578125 -24.859375 C -45.160156 -24.859375 -45.816406 -24.890625 -46.546875 -24.953125 C -47.273438 -25.015625 -48.273438 -25.148438 -49.546875 -25.359375 C -50.816406 -25.578125 -52.070312 -25.988281 -53.3125 -26.59375 C -54.5625 -27.195312 -55.765625 -27.894531 -56.921875 -28.6875 C -58.078125 -29.476562 -59.140625 -30.492188 -60.109375 -31.734375 C -61.078125 -32.984375 -61.925781 -34.367188 -62.65625 -35.890625 C -64.238281 -39.109375 -65.03125 -43.023438 -65.03125 -47.640625 C -65.03125 -56.921875 -61.945312 -64.488281 -55.78125 -70.34375 C -49.625 -76.207031 -41.75 -79.140625 -32.15625 -79.140625 C -22.5625 -79.140625 -14.585938 -75.675781 -8.234375 -68.75 C -1.890625 -61.832031 1.28125 -53.0625 1.28125 -42.4375 C 1.28125 -31.8125 -1.875 -22.992188 -8.1875 -15.984375 C -14.507812 -8.972656 -22.707031 -5.46875 -32.78125 -5.46875 C -39.28125 -5.46875 -45.050781 -6.984375 -50.09375 -10.015625 C -55.132812 -13.054688 -59.082031 -17.398438 -61.9375 -23.046875 L -61.109375 -23.59375 C -58.503906 -19.644531 -54.738281 -16.804688 -49.8125 -15.078125 C -44.894531 -13.347656 -39.675781 -12.484375 -34.15625 -12.484375 C -23.894531 -12.484375 -15.878906 -15.273438 -10.109375 -20.859375 C -4.335938 -26.441406 -1.453125 -33.601562 -1.453125 -42.34375 C -1.453125 -51.09375 -4.351562 -58.242188 -10.15625 -63.796875 C -15.957031 -69.359375 -23.59375 -72.140625 -33.0625 -72.140625 C -41.257812 -72.140625 -48.179688 -69.9375 -53.828125 -65.53125 C -59.472656 -61.125 -62.296875 -54.914062 -62.296875 -46.90625 C -62.296875 -43.320312 -61.660156 -40.070312 -60.390625 -37.15625 C -58.140625 -31.875 -54.429688 -28.382812 -49.265625 -26.6875 C -47.753906 -26.195312 -46.453125 -25.953125 -45.359375 -25.953125 C -44.265625 -25.953125 -43.382812 -26.015625 -42.71875 -26.140625 Z M -42.53125 -25.234375 "/></g></g></g></g><g style="fill:#213b93;fill-opacity:1;"><g transform="translate(43.728854, 208.898468)"><path style="stroke:none" d="M 15.734375 -66.578125 L 15.734375 -34.359375 L 32.328125 -34.359375 C 35.347656 -34.359375 37.535156 -34.882812 38.890625 -35.9375 C 40.242188 -37 40.921875 -39.300781 40.921875 -42.84375 L 41.875 -42.84375 L 41.875 -24.703125 L 40.921875 -24.703125 C 40.921875 -28.242188 40.210938 -30.546875 38.796875 -31.609375 C 37.378906 -32.671875 35.222656 -33.203125 32.328125 -33.203125 L 15.734375 -33.203125 L 15.734375 -5.59375 C 15.734375 -3.539062 16.035156 -2.253906 16.640625 -1.734375 C 17.253906 -1.222656 18.65625 -0.96875 20.84375 -0.96875 L 20.84375 0 L 2.3125 0 L 2.3125 -0.96875 C 4.5625 -0.96875 5.976562 -1.222656 6.5625 -1.734375 C 7.144531 -2.253906 7.4375 -3.539062 7.4375 -5.59375 L 7.4375 -61.375 C 7.4375 -63.625 7.144531 -65.050781 6.5625 -65.65625 C 5.976562 -66.269531 4.5625 -66.578125 2.3125 -66.578125 L 2.3125 -67.546875 L 49.40625 -67.546875 L 49.40625 -53.078125 L 48.546875 -53.078125 C 48.546875 -56.679688 48.0625 -59.460938 47.09375 -61.421875 C 46.125 -63.378906 44.484375 -64.726562 42.171875 -65.46875 C 39.859375 -66.207031 36.707031 -66.578125 32.71875 -66.578125 Z M 15.734375 -66.578125 "/></g></g><g style="fill:#213b93;fill-opacity:1;"><g transform="translate(227.131468, 209.273482)"><path style="stroke:none" d="M 86.453125 -85.78125 C 87.273438 -85.78125 88.128906 -85.75 89.015625 -85.6875 L 89.015625 -84.734375 C 81.546875 -84.171875 76.160156 -80.625 72.859375 -74.09375 C 70.710938 -69.851562 69.640625 -64.472656 69.640625 -57.953125 L 69.640625 -24.03125 C 69.503906 -16.050781 66.9375 -9.828125 61.9375 -5.359375 C 56.9375 -0.898438 49.796875 1.328125 40.515625 1.328125 C 31.234375 1.328125 23.835938 -0.960938 18.328125 -5.546875 C 12.816406 -10.140625 10.097656 -16.269531 10.171875 -23.9375 L 10.171875 -60.890625 C 10.171875 -62.222656 9.675781 -63.332031 8.6875 -64.21875 C 7.707031 -65.101562 6.519531 -65.546875 5.125 -65.546875 L 3.609375 -65.546875 L 3.609375 -66.5 L 30.96875 -66.5 L 30.96875 -65.546875 L 29.453125 -65.546875 C 27.484375 -65.546875 26.023438 -64.785156 25.078125 -63.265625 C 24.640625 -62.566406 24.421875 -61.804688 24.421875 -60.984375 L 24.421875 -24.703125 C 24.421875 -17.984375 26.160156 -12.660156 29.640625 -8.734375 C 33.117188 -4.804688 37.710938 -2.84375 43.421875 -2.84375 C 43.484375 -2.84375 43.515625 -2.84375 43.515625 -2.84375 C 43.515625 -2.84375 43.546875 -2.84375 43.609375 -2.84375 C 49.242188 -2.84375 53.863281 -4.679688 57.46875 -8.359375 C 61.082031 -12.035156 62.890625 -17.070312 62.890625 -23.46875 L 62.890625 -57.953125 C 62.890625 -66.503906 65.148438 -73.28125 69.671875 -78.28125 C 74.203125 -83.28125 79.796875 -85.78125 86.453125 -85.78125 Z M 86.453125 -85.78125 "/></g></g><g transform="matrix(1,0,0,1,304,134)"><g clip-path="url(#8508b20c0f)"><g style="fill:#213b93;fill-opacity:1;"><g transform="translate(0.493979, 75.453426)"><path style="stroke:none" d="M 14.546875 -46.625 L 28.1875 -36.5625 C 31.78125 -34.164062 34.472656 -31.359375 36.265625 -28.140625 C 38.054688 -24.921875 39 -21.617188 39.09375 -18.234375 C 39.195312 -14.847656 38.484375 -11.707031 36.953125 -8.8125 C 35.429688 -5.925781 33.109375 -3.585938 29.984375 -1.796875 C 26.867188 -0.00390625 22.984375 0.890625 18.328125 0.890625 C 15.273438 0.890625 12.585938 0.160156 10.265625 -1.296875 C 7.941406 -2.753906 6.015625 -4.347656 4.484375 -6.078125 C 4.484375 -6.078125 4.414062 -6.144531 4.28125 -6.28125 C 4.019531 -6.539062 3.789062 -6.671875 3.59375 -6.671875 C 3.1875 -6.671875 2.882812 -6.335938 2.6875 -5.671875 C 2.488281 -5.015625 2.320312 -4.238281 2.1875 -3.34375 C 2.0625 -2.445312 1.976562 -1.664062 1.9375 -1 C 1.90625 -0.332031 1.890625 0 1.890625 0 L 1.09375 0 L 1 -27.203125 L 2.59375 -27.203125 C 2.59375 -27.203125 2.609375 -26.566406 2.640625 -25.296875 C 2.671875 -24.035156 2.816406 -22.410156 3.078125 -20.421875 C 3.347656 -18.429688 3.816406 -16.320312 4.484375 -14.09375 C 5.148438 -11.875 6.046875 -9.765625 7.171875 -7.765625 C 8.296875 -5.773438 9.769531 -4.148438 11.59375 -2.890625 C 13.425781 -1.628906 15.671875 -1 18.328125 -1 C 20.585938 -1 22.695312 -1.507812 24.65625 -2.53125 C 26.613281 -3.5625 28.191406 -5.191406 29.390625 -7.421875 C 30.585938 -9.648438 31.1875 -12.585938 31.1875 -16.234375 C 31.1875 -19.492188 30.585938 -22.085938 29.390625 -24.015625 C 28.191406 -25.941406 26.78125 -27.484375 25.15625 -28.640625 C 23.53125 -29.804688 22.050781 -30.851562 20.71875 -31.78125 L 10.765625 -39.25 C 8.035156 -41.039062 5.988281 -43.25 4.625 -45.875 C 3.269531 -48.5 2.570312 -51.222656 2.53125 -54.046875 C 2.5 -56.867188 3.128906 -59.507812 4.421875 -61.96875 C 5.722656 -64.425781 7.6875 -66.414062 10.3125 -67.9375 C 12.9375 -69.46875 16.238281 -70.234375 20.21875 -70.234375 C 23.34375 -70.234375 26.015625 -69.519531 28.234375 -68.09375 C 30.460938 -66.664062 32.273438 -65.085938 33.671875 -63.359375 C 34.003906 -62.960938 34.300781 -62.765625 34.5625 -62.765625 C 34.96875 -62.765625 35.269531 -63.09375 35.46875 -63.75 C 35.664062 -64.414062 35.828125 -65.195312 35.953125 -66.09375 C 36.085938 -67 36.171875 -67.78125 36.203125 -68.4375 C 36.242188 -69.101562 36.265625 -69.4375 36.265625 -69.4375 L 37.0625 -69.4375 L 37.0625 -42.140625 L 35.5625 -42.140625 C 35.5625 -42.140625 35.546875 -42.769531 35.515625 -44.03125 C 35.484375 -45.289062 35.332031 -46.914062 35.0625 -48.90625 C 34.800781 -50.90625 34.367188 -53.015625 33.765625 -55.234375 C 33.171875 -57.460938 32.304688 -59.570312 31.171875 -61.5625 C 30.046875 -63.5625 28.585938 -65.191406 26.796875 -66.453125 C 25.003906 -67.710938 22.8125 -68.34375 20.21875 -68.34375 C 18.363281 -68.34375 16.65625 -67.8125 15.09375 -66.75 C 13.53125 -65.6875 12.265625 -64.257812 11.296875 -62.46875 C 10.335938 -60.675781 9.859375 -58.679688 9.859375 -56.484375 C 9.859375 -53.828125 10.375 -51.71875 11.40625 -50.15625 C 12.4375 -48.59375 13.484375 -47.414062 14.546875 -46.625 Z M 14.546875 -46.625 "/></g></g></g></g><path style="fill:none;stroke-width:3;stroke-linecap:butt;stroke-linejoin:miter;stroke:#213b93;stroke-opacity:1;stroke-miterlimit:4;" d="M 1.141358 14.446362 C 15.830859 -2.814733 30.514045 -2.817566 45.199326 14.445922 " transform="matrix(-0.706276,-0.252338,0.252338,-0.706276,129.711529,217.959874)"/><path style="fill:none;stroke-width:4;stroke-linecap:butt;stroke-linejoin:miter;stroke:#213b93;stroke-opacity:1;stroke-miterlimit:4;" d="M 0.932467 8.313017 C 16.888564 -0.106546 32.847258 -0.102365 48.805135 8.314424 " transform="matrix(-0.73967,0.124049,-0.124049,-0.73967,151.416249,211.107437)"/></g></svg>